<svg width="64" height="64" viewBox="0 0 64 64" fill="none" xmlns="http://www.w3.org/2000/svg">
<rect width="64" height="64" fill="url(#paint0_linear_365_978)"/>
<path d="M50.3187 36.2366L50.2684 36.2896C50.2448 36.3141 50.2209 36.3382 50.1968 36.3624L36.3437 50.1932C33.9307 52.6023 30.018 52.6023 27.6049 50.1932L23.7793 46.3739C23.5082 46.1043 23.5075 45.6657 23.7776 45.3947C23.857 45.315 23.9547 45.2557 24.062 45.2224C28.1623 43.9567 31.4941 42.4955 34.0569 40.8391C40.1606 36.8944 45.5814 35.3602 50.3187 36.2366ZM47.4147 24.8594C52.5291 26.4711 51.9324 30.2337 52.0002 31.7168C46.3988 28.7799 39.6602 29.8563 31.7847 34.9464C25.9145 38.7401 20.9974 40.3043 17.0332 39.639C13.069 38.9733 12.1773 34.132 12 32.8455C16.356 35.0478 22.1935 33.7838 29.5124 29.0536C36.3326 24.6458 42.3001 23.2478 47.4147 24.8594ZM36.3437 13.807L39.9383 17.3951C40.2089 17.6653 40.2095 18.104 39.9393 18.3747C39.8429 18.4713 39.7201 18.5373 39.5864 18.5642C34.3829 19.6125 30.2211 21.1447 27.1017 23.1609C21.756 26.6158 17.2007 28.2216 13.4356 27.9783L13.436 27.9774L27.6049 13.807C30.018 11.3977 33.9307 11.3977 36.3437 13.807Z" fill="url(#paint1_linear_365_978)"/>
<defs>
<linearGradient id="paint0_linear_365_978" x1="32" y1="0" x2="32" y2="64" gradientUnits="userSpaceOnUse">
<stop stop-color="#10012A"/>
<stop offset="1" stop-color="#2A036A"/>
</linearGradient>
<linearGradient id="paint1_linear_365_978" x1="32.0002" y1="12" x2="32.0002" y2="52" gradientUnits="userSpaceOnUse">
<stop stop-color="#7DADFF"/>
<stop offset="1" stop-color="#CEDFFF"/>
</linearGradient>
</defs>
</svg>
