<svg width="64" height="64" viewBox="0 0 64 64" fill="none" xmlns="http://www.w3.org/2000/svg">
<rect width="64" height="64" fill="white"/>
<path d="M49.9578 30.7785C49.2832 20.8608 40.6963 13.3676 30.7785 14.0422C25.8379 14.3783 21.4998 16.6786 18.4726 20.1281L18.4641 20.122C18.4437 20.1502 18.4247 20.178 18.4044 20.2063C15.3974 23.6726 13.7062 28.2816 14.0422 33.2215C14.0742 33.6922 14.1296 34.1554 14.1966 34.6146C14.1965 34.6145 14.1966 34.6147 14.1966 34.6146C14.1996 34.6353 14.2027 34.6564 14.2056 34.6772C14.2509 34.9801 14.3034 35.2803 14.3634 35.5778C14.3634 35.5777 14.3634 35.578 14.3634 35.5778C14.3645 35.5832 14.3656 35.5891 14.3667 35.5945C14.4213 35.8639 14.4819 36.1308 14.5483 36.3954C14.5483 36.3956 14.5485 36.3964 14.5486 36.3966C16.6273 44.6868 24.3946 50.5582 33.2215 49.9578C43.1393 49.2832 50.6324 40.6963 49.9578 30.7785ZM46.0397 31.045C46.1228 32.2661 46.0459 33.4616 45.8285 34.6117C45.8259 34.6052 45.8237 34.5983 45.821 34.5918C44.5161 31.4021 41.9348 29.0991 39.6649 27.827C40.1242 22.4222 38.2906 20.1452 36.2154 19.7747C36.159 19.7638 36.1022 19.7546 36.0445 19.7474C34.3974 19.5362 32.8913 20.7004 32.6803 22.3473C32.469 23.9944 33.6332 25.5007 35.2801 25.712C35.4239 25.7302 35.566 25.7352 35.7067 25.733C35.7158 25.9154 35.7216 26.1092 35.7232 26.3119C33.8042 25.8364 32.0106 25.7433 30.3752 25.8904C29.7636 25.9311 29.1517 26.0082 28.543 26.1219C28.7471 24.2968 29.4319 22.2479 30.7605 20.7484C32.0449 19.2989 33.9544 18.4681 36.0375 18.6813C36.4324 18.7217 36.8538 18.8187 37.2331 18.9461C37.2505 18.9519 37.2691 18.9569 37.2863 18.9629C37.2865 18.9625 37.2869 18.9621 37.2871 18.9617C42.112 20.9273 45.663 25.5064 46.0397 31.045ZM33.4939 33.7943C33.4927 33.7963 33.4912 33.7982 33.49 33.8002C33.0605 34.4197 32.5496 35.0304 31.9501 35.6212C31.0511 34.6648 30.3291 33.6349 29.7812 32.5694C29.7532 32.5123 29.7232 32.458 29.6957 32.4C29.6947 32.3979 29.6938 32.3958 29.6927 32.3936C29.3708 31.7117 29.0972 30.9636 28.8854 30.1486C30.1645 29.8477 31.4188 29.737 32.6167 29.7953C32.6801 29.7995 32.7422 29.8008 32.8061 29.806C32.8085 29.8062 32.8109 29.8064 32.8132 29.8065C33.5635 29.8687 34.3469 30.0055 35.1573 30.2289C34.7784 31.4866 34.2472 32.6278 33.598 33.6357C33.5626 33.6885 33.5305 33.7416 33.4939 33.7943ZM27.3433 18.7231C27.34 18.7274 27.3362 18.7315 27.3328 18.7359C25.224 21.4595 24.5199 24.8443 24.5525 27.4457C19.6424 29.7503 18.5873 32.4766 19.3041 34.459C19.3228 34.5133 19.3432 34.5671 19.3659 34.6206C20.0064 36.1527 21.7678 36.875 23.2996 36.2342C24.8316 35.5936 25.5539 33.8322 24.9135 32.3003C24.8574 32.1668 24.7907 32.0411 24.7185 31.9204C24.8736 31.8201 25.0402 31.7171 25.2172 31.6132C25.7648 33.5131 26.575 35.1201 27.5202 36.463C27.8605 36.9713 28.2325 37.4618 28.6344 37.9312C26.9516 38.6672 24.8344 39.099 22.871 38.698C20.9735 38.3105 19.2992 37.0721 18.4423 35.1615C18.2799 34.7994 18.1532 34.3861 18.0739 33.9939C18.025 33.6512 17.9841 33.3058 17.9603 32.955C17.5217 26.5072 21.5219 20.7671 27.3433 18.7231ZM32.955 46.0398C29.1261 46.3002 25.547 44.9942 22.842 42.6728C26.2551 43.1373 29.5385 42.0546 31.7752 40.7256C36.2278 43.8282 39.1177 43.379 40.4764 41.7666C40.514 41.7233 40.5505 41.6787 40.5855 41.6324C41.5919 40.3115 41.3368 38.425 40.0159 37.4188C38.6952 36.4124 36.8086 36.6675 35.8021 37.9881C35.7146 38.1035 35.6392 38.224 35.5707 38.347C35.4074 38.2633 35.236 38.171 35.0587 38.0705C36.4314 36.6456 37.4096 35.1377 38.1005 33.6469C38.371 33.0968 38.6102 32.5283 38.8161 31.9444C40.2958 33.0337 41.7295 34.6521 42.3643 36.5539C42.9774 38.391 42.7421 40.4601 41.516 42.1575C41.2836 42.4793 40.9889 42.7957 40.6889 43.0606C40.6846 43.0643 40.6802 43.0684 40.6759 43.0724C38.5308 44.7584 35.8765 45.841 32.955 46.0398Z" fill="url(#paint0_linear_335_492)"/>
<path style="mix-blend-mode:overlay" opacity="0.9" d="M36.2156 19.7746C36.1592 19.7638 36.1024 19.7545 36.0447 19.7473C35.7533 19.71 35.4668 19.7177 35.1906 19.7615C36.9125 20.6983 38.168 23.3083 37.5079 28.4568C37.2893 30.1619 36.7822 31.7847 36.05 33.2737C35.4567 34.554 34.6495 35.8465 33.5645 37.0887C34.0856 37.4795 34.5937 37.8066 35.0589 38.0704C36.4317 36.6455 37.4099 35.1377 38.1006 33.6468C38.8329 32.1579 39.3399 30.5352 39.5585 28.8299C40.3444 22.6998 38.4151 20.1673 36.2156 19.7746Z" fill="url(#paint1_radial_335_492)"/>
<g style="mix-blend-mode:overlay" opacity="0.8">
<path d="M37.5084 28.4567C38.1684 23.3083 36.913 20.6982 35.1911 19.7614C35.1238 19.7721 35.0578 19.7864 34.992 19.8016C36.6778 20.7706 37.8907 23.3782 37.2397 28.4567C37.0211 30.1619 36.514 31.7846 35.7819 33.2736C35.2082 34.5116 34.4323 35.7606 33.401 36.9648C33.4559 37.0072 33.5104 37.0477 33.565 37.0886C34.65 35.8465 35.4572 34.5539 36.0505 33.2736C36.7828 31.7846 37.2898 30.1619 37.5084 28.4567Z" fill="#E6E9EE"/>
</g>
<path style="mix-blend-mode:overlay" opacity="0.5" d="M30.9633 40.134C30.8015 40.0107 30.6458 39.8817 30.4901 39.7526C27.9489 40.8128 24.4262 41.4775 20.9284 40.6658C21.5012 41.3959 22.1404 42.0701 22.8426 42.6727C26.2557 43.1372 29.539 42.0545 31.7757 40.7256C31.5102 40.5406 31.2399 40.3448 30.9633 40.134Z" fill="url(#paint2_radial_335_492)"/>
<path style="mix-blend-mode:overlay" opacity="0.6" d="M30.4898 39.7526C30.412 39.6882 30.3336 39.6243 30.2573 39.5584C27.6969 40.5816 24.1582 41.1932 20.6683 40.3234C20.7533 40.4389 20.8398 40.5531 20.9282 40.6658C24.426 41.4776 27.9487 40.8129 30.4898 39.7526Z" fill="url(#paint3_linear_335_492)"/>
<path style="mix-blend-mode:overlay" opacity="0.9" d="M19.3049 34.462C19.3237 34.5163 19.3441 34.5701 19.3668 34.6236C19.4801 34.8947 19.63 35.139 19.8061 35.3563C19.7564 33.3967 21.389 31.0045 26.1778 29.0018C27.7638 28.3385 29.4227 27.9662 31.0782 27.8559C32.4837 27.7295 34.0066 27.7823 35.6249 28.101C35.7028 27.4543 35.7321 26.8507 35.7279 26.3158C33.8076 25.8394 32.0126 25.7462 30.3761 25.8934C28.7205 26.0038 27.0617 26.376 25.4756 27.0392C19.7738 29.4238 18.5453 32.3609 19.3049 34.462Z" fill="url(#paint4_radial_335_492)"/>
<g style="mix-blend-mode:overlay" opacity="0.8">
<path d="M26.178 29.0018C21.3892 31.0045 19.7566 33.3967 19.8063 35.3563C19.8491 35.4092 19.8945 35.4592 19.9405 35.5087C19.9369 33.5642 21.5887 31.21 26.3123 29.2345C27.8983 28.5713 29.5572 28.1991 31.2128 28.0886C32.5717 27.9664 34.0413 28.0138 35.5998 28.3049C35.6091 28.2361 35.6169 28.1687 35.6251 28.1011C34.0069 27.7824 32.4838 27.7295 31.0785 27.8559C29.4229 27.9663 27.764 28.3386 26.178 29.0018Z" fill="#E6E9EE"/>
</g>
<path style="mix-blend-mode:overlay" opacity="0.4" d="M39.5626 28.8313C39.5368 29.0331 39.5029 29.2325 39.4689 29.4319C41.6577 31.1024 43.9948 33.8208 45.0407 37.2559C45.3865 36.3948 45.6508 35.5041 45.8216 34.5948C44.5173 31.4066 41.9379 29.1045 39.6687 27.832C39.6413 28.1545 39.6068 28.4863 39.5626 28.8313Z" fill="url(#paint5_radial_335_492)"/>
<path style="mix-blend-mode:overlay" opacity="0.5" d="M39.4691 29.4318C39.4522 29.5315 39.436 29.6313 39.4171 29.7303C41.5834 31.436 43.8825 34.1948 44.8742 37.6521C44.9317 37.5207 44.9874 37.3887 45.0409 37.2558C43.9949 33.8207 41.6578 31.1023 39.4691 29.4318Z" fill="url(#paint6_linear_335_492)"/>
<path style="mix-blend-mode:overlay" opacity="0.9" d="M40.4785 41.7625C40.5161 41.7191 40.5525 41.6746 40.5876 41.6282C40.7657 41.3945 40.9022 41.1425 41.0025 40.8814C39.3302 41.9043 36.4421 41.6865 32.3134 38.5406C30.9459 37.4987 29.7941 36.2482 28.8707 34.8696C28.0587 33.7156 27.3429 32.3703 26.8097 30.8095C26.2107 31.0654 25.6733 31.3419 25.2122 31.613C25.7599 33.5142 26.5766 35.1153 27.5222 36.4589C28.4456 37.8375 29.5975 39.088 30.9649 40.1299C35.8808 43.8756 39.0387 43.471 40.4785 41.7625Z" fill="url(#paint7_radial_335_492)"/>
<g style="mix-blend-mode:overlay" opacity="0.8">
<path d="M32.3137 38.5406C36.4425 41.6864 39.3306 41.9042 41.0028 40.8814C41.0272 40.8178 41.0478 40.7535 41.0676 40.6889C39.3855 41.6643 36.5207 41.4109 32.4481 38.3079C31.0807 37.266 29.9289 36.0155 29.0055 34.6369C28.2203 33.5212 27.5265 32.2247 26.9993 30.7295C26.9351 30.7558 26.8728 30.7827 26.8101 30.8095C27.3432 32.3702 28.059 33.7156 28.8711 34.8696C29.7945 36.2482 30.9464 37.4986 32.3137 38.5406Z" fill="#E6E9EE"/>
</g>
<path style="mix-blend-mode:overlay" opacity="0.3" d="M25.4734 27.0338C25.6612 26.9553 25.8508 26.8851 26.0404 26.8147C26.3928 24.0839 27.5784 20.7008 30.0303 18.0775C29.1116 18.2085 28.2082 18.425 27.3352 18.7317C25.2264 21.4553 24.5224 24.8402 24.555 27.4416C24.8479 27.3042 25.1526 27.168 25.4734 27.0338Z" fill="url(#paint8_radial_335_492)"/>
<path style="mix-blend-mode:overlay" opacity="0.4" d="M26.0402 26.8147C26.1349 26.7796 26.2294 26.7437 26.3247 26.7105C26.7188 23.9816 27.9584 20.6111 30.4566 18.0236C30.3141 18.0395 30.1719 18.0573 30.0301 18.0775C27.5783 20.7008 26.3926 24.0839 26.0402 26.8147Z" fill="url(#paint9_linear_335_492)"/>
<path style="mix-blend-mode:multiply" opacity="0.4" d="M30.7784 14.0422C25.8378 14.3783 21.4997 16.6786 18.4725 20.1281C18.4496 20.1542 18.4269 20.1803 18.4042 20.2065C18.9935 20.7911 20.9199 21.9436 21.7005 22.4243C23.2334 20.7759 25.1603 19.4896 27.3433 18.7231C27.4958 18.5267 27.6538 18.3329 27.8212 18.1439C29.8544 15.8496 32.631 14.6369 35.8515 14.6369C36.21 14.6369 36.94 14.694 36.9557 14.6951C35.0033 14.1342 32.9225 13.8964 30.7784 14.0422Z" fill="url(#paint10_linear_335_492)"/>
<path style="mix-blend-mode:multiply" opacity="0.4" d="M32.9548 46.0397C29.126 46.3001 25.5468 44.9942 22.8418 42.6727C22.5901 42.6384 22.3377 42.5973 22.0849 42.5457C19.0814 41.932 16.6429 40.1338 15.0326 37.3447C14.8534 37.0343 14.693 36.718 14.5485 36.3967C16.6273 44.6868 24.3946 50.5581 33.2213 49.9578C33.2605 49.0488 32.9925 46.9397 32.9548 46.0397Z" fill="url(#paint11_linear_335_492)"/>
<path style="mix-blend-mode:multiply" opacity="0.4" d="M49.9576 30.7785C49.4046 30.7218 46.7035 30.935 46.0395 31.045C46.1226 32.266 46.0457 33.4616 45.8283 34.6117C45.9215 34.8405 46.0099 35.0728 46.0893 35.3106C47.0596 38.2186 46.7215 41.2296 45.1112 44.0187C44.9354 44.3233 44.7455 44.6151 44.5438 44.896C44.54 44.9013 44.5356 44.9074 44.5324 44.9119C44.5324 44.9119 44.5406 44.9048 44.5453 44.9005C48.2013 41.3437 50.3308 36.2663 49.9576 30.7785Z" fill="url(#paint12_linear_335_492)"/>
<path style="mix-blend-mode:multiply" opacity="0.5" d="M36.0375 18.6813C36.4323 18.7217 36.8537 18.8187 37.2331 18.9461C37.2505 18.9519 37.2691 18.9569 37.2862 18.9629L37.2871 18.9617C38.8398 19.5943 40.2595 20.4987 41.485 21.6175C41.4876 21.6197 41.4902 21.6215 41.4929 21.6237C42.0836 20.9485 43.2209 20.2065 43.2209 20.2065C43.2209 20.2065 41.4794 18.4252 38.8161 17.8724C36.9515 17.4854 32.746 17.1102 30.0936 21.6237C30.0936 21.6237 30.1042 21.6138 30.1197 21.5995C30.3159 21.3029 30.5245 21.0146 30.7604 20.7484C32.0449 19.2989 33.9544 18.4681 36.0375 18.6813Z" fill="url(#paint13_linear_335_492)"/>
<path style="mix-blend-mode:multiply" opacity="0.5" d="M41.5158 42.1558C41.2834 42.4776 40.9887 42.794 40.6887 43.0589C40.675 43.0711 40.6614 43.0846 40.6476 43.0965L40.6482 43.0978C39.324 44.1263 37.8309 44.9035 36.2492 45.4054C36.246 45.4066 36.2431 45.408 36.2399 45.4092C36.5294 46.2583 36.6033 47.6142 36.6033 47.6142C36.6033 47.6142 39.0167 46.9968 40.8271 44.9666C42.0946 43.5454 44.5222 40.0909 41.9396 35.5372C41.9396 35.5372 41.9429 35.5513 41.9475 35.5718C42.1062 35.89 42.2516 36.2149 42.3642 36.5523C42.9773 38.3893 42.742 40.4584 41.5158 42.1558Z" fill="url(#paint14_linear_335_492)"/>
<path style="mix-blend-mode:multiply" opacity="0.5" d="M18.4489 35.1669C18.2864 34.8047 18.1597 34.3913 18.0804 33.9991C18.0767 33.9811 18.0717 33.9625 18.0683 33.9446L18.0669 33.9444C17.8383 32.2835 17.9118 30.6018 18.268 28.981C18.2685 28.9777 18.2688 28.9745 18.2694 28.9711C17.3893 28.7972 16.178 28.1833 16.178 28.1833C16.178 28.1833 15.5061 30.5821 16.359 33.165C16.9561 34.9732 18.734 38.8029 23.969 38.8431C23.969 38.8431 23.9551 38.839 23.9349 38.8327C23.58 38.8111 23.2261 38.7746 22.8776 38.7034C20.98 38.3157 19.3058 37.0775 18.4489 35.1669Z" fill="url(#paint15_linear_335_492)"/>
<path style="mix-blend-mode:multiply" opacity="0.6" d="M35.2803 25.7119C35.4239 25.7301 35.5661 25.7351 35.7068 25.7329C35.7068 25.7329 35.6129 23.8627 35.3832 22.9031C35.1535 21.9435 34.8148 21.308 34.4428 20.9484C34.1762 20.6907 33.3348 20.3698 32.6804 22.3472C32.4692 23.9943 33.6334 25.5006 35.2803 25.7119Z" fill="url(#paint16_linear_335_492)"/>
<path style="mix-blend-mode:multiply" opacity="0.5" d="M24.9147 32.3032C24.8586 32.1696 24.7919 32.0441 24.7197 31.9233C24.7197 31.9233 23.147 32.9399 22.4308 33.6185C21.7146 34.2971 21.3336 34.9083 21.2082 35.4103C21.1183 35.7699 21.2612 36.6591 23.3008 36.2371C24.8328 35.5965 25.5551 33.8351 24.9147 32.3032Z" fill="url(#paint17_linear_335_492)"/>
<path style="mix-blend-mode:multiply" opacity="0.6" d="M35.8051 37.9831C35.7175 38.0985 35.6421 38.219 35.5736 38.342C35.5736 38.342 37.2403 39.1957 38.1861 39.4767C39.1319 39.7576 39.8517 39.782 40.3492 39.6396C40.7056 39.5375 41.4042 38.9693 40.0189 37.4139C38.6981 36.4074 36.8116 36.6626 35.8051 37.9831Z" fill="url(#paint18_linear_335_492)"/>
<path style="mix-blend-mode:multiply" opacity="0.3" d="M35.1571 30.229C34.7783 31.4867 34.2471 32.6279 33.5979 33.6358C33.5625 33.6886 33.5304 33.7417 33.4938 33.7944C33.4926 33.7964 33.4911 33.7983 33.4899 33.8003C33.0604 34.4198 32.5496 35.0305 31.9499 35.6213C32.362 36.0597 32.8076 36.4842 33.2969 36.8868C33.9115 37.3719 34.5139 37.7617 35.0587 38.0706C36.4314 36.6457 37.4096 35.1379 38.1004 33.647C38.3709 33.0969 38.6102 32.5284 38.816 31.9445C38.1828 31.4783 37.5412 31.1073 36.9501 30.8552C36.3387 30.5947 35.7411 30.39 35.1571 30.229Z" fill="url(#paint19_linear_335_492)"/>
<path style="mix-blend-mode:multiply" opacity="0.3" d="M22.8419 42.6729C26.255 43.1374 29.5383 42.0547 31.775 40.7257C31.5095 40.5407 31.2392 40.345 30.9626 40.1342C30.0993 39.4764 29.3225 38.7351 28.6343 37.9312C26.9514 38.6674 24.8342 39.0991 22.8709 38.6981C20.9734 38.3105 19.2991 37.0723 18.4422 35.1617C18.2798 34.7995 18.1531 34.3861 18.0737 33.994C18.5696 37.4736 20.3255 40.5133 22.8419 42.6729Z" fill="url(#paint20_linear_335_492)"/>
<path style="mix-blend-mode:multiply" opacity="0.3" d="M31.9503 35.6213C31.0514 34.665 30.3293 33.635 29.7815 32.5696C29.7534 32.5126 29.7234 32.4582 29.696 32.4002C29.695 32.3981 29.694 32.3959 29.6929 32.3938C29.3711 31.7118 29.0975 30.9638 28.8856 30.1488C28.3011 30.2863 27.7121 30.4597 27.1201 30.6816C26.3943 30.9708 25.7566 31.2968 25.2175 31.6134C25.765 33.5134 26.5752 35.1203 27.5204 36.4633C27.8608 36.9715 28.2327 37.4619 28.6347 37.9314C29.3561 37.6157 29.9992 37.2452 30.5136 36.8588C31.0441 36.4603 31.5194 36.0459 31.9503 35.6213Z" fill="url(#paint21_linear_335_492)"/>
<path style="mix-blend-mode:multiply" opacity="0.3" d="M27.3327 18.736C25.2238 21.4596 24.5198 24.8444 24.5523 27.4458C24.8465 27.3079 25.1524 27.1711 25.4747 27.0363C26.4748 26.6181 27.5039 26.3162 28.5429 26.122C28.7471 24.2969 29.4318 22.248 30.7604 20.7485C32.0448 19.299 33.9544 18.4682 36.0374 18.6814C36.4323 18.7218 36.8537 18.8188 37.233 18.9462C37.2504 18.952 37.269 18.957 37.2862 18.963C37.2864 18.9626 37.2868 18.9622 37.2871 18.9618C35.3679 18.18 33.2479 17.8105 31.0449 17.9604C29.7511 18.0484 28.5114 18.3131 27.3432 18.7232C27.3399 18.7275 27.336 18.7317 27.3327 18.736Z" fill="url(#paint22_linear_335_492)"/>
<path style="mix-blend-mode:multiply" opacity="0.3" d="M45.821 34.5919C44.516 31.4022 41.9348 29.0993 39.6647 27.8272C39.6372 28.1507 39.6026 28.484 39.5582 28.8302C39.4204 29.9055 39.1674 30.9477 38.8159 31.9446C40.2956 33.0339 41.7294 34.6523 42.3642 36.5541C42.9773 38.3912 42.7421 40.4603 41.5159 42.1577C41.2834 42.4795 40.9888 42.796 40.6888 43.0608C40.6844 43.0646 40.6802 43.0686 40.6759 43.0726C43.3184 40.9956 45.1876 38.0021 45.8284 34.6119C45.8257 34.6054 45.8236 34.5985 45.821 34.5919Z" fill="url(#paint23_linear_335_492)"/>
<path style="mix-blend-mode:multiply" opacity="0.3" d="M28.5322 28.2867C28.612 28.945 28.7332 29.5636 28.8853 30.1487C30.1644 29.8477 31.4187 29.7371 32.6166 29.7955C32.68 29.7997 32.742 29.8009 32.806 29.8062C32.8084 29.8063 32.8107 29.8065 32.8131 29.8067C33.5634 29.8688 34.3467 30.0056 35.1571 30.229C35.3304 29.6537 35.4749 29.0565 35.5788 28.4322C35.6918 27.6563 35.7281 26.9389 35.723 26.312C33.8041 25.8365 32.0105 25.7435 30.375 25.8904C29.7635 25.9312 29.1515 26.0083 28.5429 26.122C28.4553 26.9051 28.4547 27.6476 28.5322 28.2867Z" fill="url(#paint24_linear_335_492)"/>
<defs>
<linearGradient id="paint0_linear_335_492" x1="19.7161" y1="44.2848" x2="42.6691" y2="21.3318" gradientUnits="userSpaceOnUse">
<stop offset="0.001139" stop-color="#E6007A"/>
<stop offset="0.207149" stop-color="#703AC2"/>
<stop offset="0.456011" stop-color="#0070EB"/>
<stop offset="0.768132" stop-color="#0297FB"/>
<stop offset="1" stop-color="#0AE2FF"/>
</linearGradient>
<radialGradient id="paint1_radial_335_492" cx="0" cy="0" r="1" gradientUnits="userSpaceOnUse" gradientTransform="translate(37.131 28.3564) scale(6.84395)">
<stop stop-color="white"/>
<stop offset="1" stop-color="white" stop-opacity="0"/>
</radialGradient>
<radialGradient id="paint2_radial_335_492" cx="0" cy="0" r="1" gradientUnits="userSpaceOnUse" gradientTransform="translate(27.0151 41.0527) scale(3.98187)">
<stop stop-color="white"/>
<stop offset="1" stop-color="white" stop-opacity="0"/>
</radialGradient>
<linearGradient id="paint3_linear_335_492" x1="21.0392" y1="40.3793" x2="24.8775" y2="40.326" gradientUnits="userSpaceOnUse">
<stop stop-color="white" stop-opacity="0"/>
<stop offset="1" stop-color="white"/>
</linearGradient>
<radialGradient id="paint4_radial_335_492" cx="0" cy="0" r="1" gradientUnits="userSpaceOnUse" gradientTransform="translate(26.2792 29.3784) rotate(-120) scale(6.84395)">
<stop stop-color="white"/>
<stop offset="1" stop-color="white" stop-opacity="0"/>
</radialGradient>
<radialGradient id="paint5_radial_335_492" cx="0" cy="0" r="1" gradientUnits="userSpaceOnUse" gradientTransform="translate(42.3324 31.7912) rotate(-120) scale(3.98187)">
<stop stop-color="white"/>
<stop offset="1" stop-color="white" stop-opacity="0"/>
</radialGradient>
<linearGradient id="paint6_linear_335_492" x1="44.7371" y1="37.3029" x2="42.7718" y2="34.0055" gradientUnits="userSpaceOnUse">
<stop stop-color="white" stop-opacity="0"/>
<stop offset="1" stop-color="white"/>
</linearGradient>
<radialGradient id="paint7_radial_335_492" cx="0" cy="0" r="1" gradientUnits="userSpaceOnUse" gradientTransform="translate(32.2657 37.9479) rotate(120) scale(6.84395)">
<stop stop-color="white"/>
<stop offset="1" stop-color="white" stop-opacity="0"/>
</radialGradient>
<radialGradient id="paint8_radial_335_492" cx="0" cy="0" r="1" gradientUnits="userSpaceOnUse" gradientTransform="translate(26.6519 23.1553) rotate(120) scale(3.98187)">
<stop stop-color="white"/>
<stop offset="1" stop-color="white" stop-opacity="0"/>
</radialGradient>
<linearGradient id="paint9_linear_335_492" x1="30.2228" y1="18.317" x2="28.3498" y2="21.6677" gradientUnits="userSpaceOnUse">
<stop stop-color="white" stop-opacity="0"/>
<stop offset="1" stop-color="white"/>
</linearGradient>
<linearGradient id="paint10_linear_335_492" x1="31.057" y1="16.6138" x2="25.1929" y2="18.3197" gradientUnits="userSpaceOnUse">
<stop stop-color="#231F20"/>
<stop offset="1" stop-color="white"/>
</linearGradient>
<linearGradient id="paint11_linear_335_492" x1="19.975" y1="38.9786" x2="24.8794" y2="44.0963" gradientUnits="userSpaceOnUse">
<stop stop-color="#231F20"/>
<stop offset="1" stop-color="white"/>
</linearGradient>
<linearGradient id="paint12_linear_335_492" x1="46.2973" y1="38.2073" x2="48.0031" y2="33.0186" gradientUnits="userSpaceOnUse">
<stop stop-color="#231F20"/>
<stop offset="1" stop-color="white"/>
</linearGradient>
<linearGradient id="paint13_linear_335_492" x1="33.7289" y1="19.581" x2="41.591" y2="21.3811" gradientUnits="userSpaceOnUse">
<stop stop-color="#231F20"/>
<stop offset="1" stop-color="white"/>
</linearGradient>
<linearGradient id="paint14_linear_335_492" x1="41.891" y1="39.7068" x2="36.401" y2="45.6154" gradientUnits="userSpaceOnUse">
<stop stop-color="#231F20"/>
<stop offset="1" stop-color="white"/>
</linearGradient>
<linearGradient id="paint15_linear_335_492" x1="20.3823" y1="36.7163" x2="18.0103" y2="29.0076" gradientUnits="userSpaceOnUse">
<stop stop-color="#231F20"/>
<stop offset="1" stop-color="white"/>
</linearGradient>
<linearGradient id="paint16_linear_335_492" x1="35.4479" y1="22.4806" x2="32.9601" y2="24.9684" gradientUnits="userSpaceOnUse">
<stop stop-color="#231F20"/>
<stop offset="1" stop-color="white"/>
</linearGradient>
<linearGradient id="paint17_linear_335_492" x1="22.0326" y1="33.7737" x2="25.4309" y2="34.6842" gradientUnits="userSpaceOnUse">
<stop stop-color="#231F20"/>
<stop offset="1" stop-color="white"/>
</linearGradient>
<linearGradient id="paint18_linear_335_492" x1="38.5197" y1="39.7439" x2="37.609" y2="36.3456" gradientUnits="userSpaceOnUse">
<stop stop-color="#231F20"/>
<stop offset="1" stop-color="white"/>
</linearGradient>
<linearGradient id="paint19_linear_335_492" x1="33.3463" y1="36.7223" x2="34.839" y2="34.661" gradientUnits="userSpaceOnUse">
<stop stop-color="#231F20"/>
<stop offset="1" stop-color="white"/>
</linearGradient>
<linearGradient id="paint20_linear_335_492" x1="28.2066" y1="35.8298" x2="25.2213" y2="37.2515" gradientUnits="userSpaceOnUse">
<stop stop-color="#231F20"/>
<stop offset="1" stop-color="white"/>
</linearGradient>
<linearGradient id="paint21_linear_335_492" x1="27.1237" y1="30.8606" x2="28.0477" y2="32.7798" gradientUnits="userSpaceOnUse">
<stop stop-color="#231F20"/>
<stop offset="1" stop-color="white"/>
</linearGradient>
<linearGradient id="paint22_linear_335_492" x1="31.4219" y1="24.9335" x2="30.7821" y2="22.7301" gradientUnits="userSpaceOnUse">
<stop stop-color="#231F20"/>
<stop offset="1" stop-color="white"/>
</linearGradient>
<linearGradient id="paint23_linear_335_492" x1="38.3163" y1="35.022" x2="40.1644" y2="35.4486" gradientUnits="userSpaceOnUse">
<stop stop-color="#231F20"/>
<stop offset="1" stop-color="white"/>
</linearGradient>
<linearGradient id="paint24_linear_335_492" x1="35.416" y1="28.779" x2="33.0705" y2="28.3526" gradientUnits="userSpaceOnUse">
<stop stop-color="#231F20"/>
<stop offset="1" stop-color="white"/>
</linearGradient>
</defs>
</svg>
