<svg width="42" height="42" viewBox="0 0 42 42" fill="none" xmlns="http://www.w3.org/2000/svg">
<g clip-path="url(#clip0_365_1032)">
<path d="M40.2347 25.4484L40.1818 25.5041C40.157 25.5298 40.132 25.5551 40.1066 25.5806L25.5609 40.1028C23.0273 42.6324 18.9189 42.6324 16.3851 40.1028L12.3683 36.0926C12.0836 35.8095 12.0829 35.349 12.3665 35.0644C12.4499 34.9807 12.5524 34.9185 12.6651 34.8835C16.9704 33.5545 20.4688 32.0203 23.1597 30.281C29.5686 26.1391 35.2605 24.5282 40.2347 25.4484ZM37.1854 13.5024C42.5556 15.1947 41.929 19.1454 42.0002 20.7026C36.1187 17.6189 29.0433 18.7491 20.774 24.0937C14.6103 28.0772 9.44726 29.7195 5.28487 29.0209C1.12247 28.322 0.18612 23.2386 0 21.8878C4.57376 24.2002 10.7032 22.8729 18.3881 17.9063C25.5492 13.2781 31.8151 11.8102 37.1854 13.5024ZM25.5609 1.89733L29.3352 5.66488C29.6193 5.94857 29.6199 6.40916 29.3363 6.69339C29.2351 6.79484 29.1061 6.86413 28.9657 6.89242C23.502 7.99316 19.1322 9.60196 15.8568 11.7189C10.2438 15.3465 5.46069 17.0327 1.50735 16.7773L1.50775 16.7763L16.3851 1.89733C18.9189 -0.632444 23.0273 -0.632444 25.5609 1.89733Z" fill="url(#paint0_linear_365_1032)"/>
</g>
<defs>
<linearGradient id="paint0_linear_365_1032" x1="21.0002" y1="-5.01582e-05" x2="21.0002" y2="42" gradientUnits="userSpaceOnUse">
<stop stop-color="#7DADFF"/>
<stop offset="1" stop-color="#CEDFFF"/>
</linearGradient>
<clipPath id="clip0_365_1032">
<rect width="42" height="42" fill="white"/>
</clipPath>
</defs>
</svg>
