<svg width="42" height="42" viewBox="0 0 42 42" fill="none" xmlns="http://www.w3.org/2000/svg">
<g clip-path="url(#clip0_264_369)">
<g clip-path="url(#clip1_264_369)">
<path d="M40.2347 25.4485L40.1817 25.5042C40.1568 25.5298 40.1318 25.5552 40.1064 25.5805L25.5609 40.1027C23.0271 42.6324 18.9189 42.6324 16.385 40.1027L12.3682 36.0926C12.0835 35.8094 12.0829 35.3488 12.3664 35.0643C12.4498 34.9807 12.5523 34.9186 12.6651 34.8834C16.9704 33.5543 20.4686 32.0203 23.1597 30.2811C29.5685 26.1391 35.2602 24.5282 40.2347 25.4485ZM37.1852 13.5025C42.5555 15.1947 41.9288 19.1454 42 20.7028C36.1187 17.6188 29.0433 18.7493 20.7739 24.0937C14.6102 28.0772 9.44717 29.7195 5.28483 29.0208C1.12245 28.322 0.18614 23.2386 0 21.8877C4.57369 24.2002 10.7031 22.873 18.3881 17.9063C25.5492 13.2781 31.8149 11.8102 37.1852 13.5025ZM25.5609 1.89732L29.3351 5.66495C29.6194 5.9486 29.6198 6.40915 29.3362 6.69346C29.235 6.7949 29.1061 6.86417 28.9656 6.89246C23.5019 7.99321 19.1323 9.60204 15.8568 11.7189C10.2438 15.3466 5.46063 17.0327 1.5073 16.7772L1.50772 16.7762L16.385 1.89732C18.9189 -0.632441 23.0271 -0.632441 25.5609 1.89732Z" fill="white"/>
</g>
</g>
<defs>
<clipPath id="clip0_264_369">
<rect width="42" height="42" fill="white"/>
</clipPath>
<clipPath id="clip1_264_369">
<rect width="42" height="42" fill="white"/>
</clipPath>
</defs>
</svg>
