<svg width="180" height="180" viewBox="0 0 180 180" fill="none" xmlns="http://www.w3.org/2000/svg">
<g clip-path="url(#clip0_159_43)">
<path fill-rule="evenodd" clip-rule="evenodd" d="M180 90C180 40.2943 139.706 -2.1727e-06 90 0C40.2943 2.1727e-06 -2.1727e-06 40.2943 0 90C2.1727e-06 139.706 40.2943 180 90 180C139.706 180 180 139.706 180 90ZM102.845 157.357C102.845 163.463 97.8343 168.426 90.7213 168.568C90.5243 168.57 90.3273 168.571 90.1296 168.572H89.8704C46.5362 168.502 11.4286 133.351 11.4286 90C11.4286 46.6063 46.6062 11.4287 90 11.4287C90.2337 11.4287 90.468 11.4297 90.701 11.4318C98.7277 11.5747 102.845 16.5374 102.845 22.6426C102.845 28.8562 97.3525 33.4286 91.5336 33.4286C85.714 33.4286 85.4286 33.4286 79.8585 33.875C74.2876 34.3214 68.5276 38.8937 68.5276 45.089C68.5276 51.321 73.5905 56.3397 79.8585 56.3397H129.26C135.509 56.3397 140.571 61.3584 140.571 67.5537C140.571 73.7489 135.509 78.7673 129.26 78.7673H53.1686C46.9007 78.7673 41.8382 83.8047 41.8382 90.0183C41.8382 96.2136 46.9007 101.233 53.1686 101.233H91.5336C97.7832 101.233 102.845 106.251 102.845 112.465C102.845 118.66 97.7832 123.679 91.5336 123.679H79.8585C73.5905 123.679 68.5276 128.697 68.5276 134.893C68.5276 141.106 73.7162 145.642 79.8585 146.107C80.3422 146.144 80.7853 146.177 81.1931 146.208C83.3544 146.373 84.5352 146.463 85.718 146.512C87.1422 146.572 88.5692 146.572 91.7143 146.572C97.9639 146.572 102.845 151.162 102.845 157.357Z" fill="#6639DD"/>
</g>
<defs>
<clipPath id="clip0_159_43">
<rect width="180" height="180" fill="white"/>
</clipPath>
</defs>
</svg>
