<svg width="42" height="42" viewBox="0 0 42 42" fill="none" xmlns="http://www.w3.org/2000/svg">
<path d="M35.3535 33.3365L27.331 26.2908H14.6625L6.64001 33.3365L10.4043 36.6425L18.4268 29.5967C19.1146 28.9927 20.0213 28.6631 20.9968 28.6631C21.9723 28.6631 22.8789 28.9927 23.5667 29.5967L31.5893 36.6425L35.3535 33.3365Z" fill="white"/>
<path d="M28.6691 24.259L39.6241 26.8346L40.9998 22.315L30.0447 19.7394C29.1068 19.5198 28.3251 18.9926 27.8373 18.2512C27.3497 17.5153 27.2247 16.6531 27.4748 15.8294L30.4073 6.20815L25.2612 5L22.3286 14.6213L28.6628 24.2536L28.6691 24.259Z" fill="white"/>
<path d="M2.37564 26.8346L13.3308 24.259L13.337 24.2536L19.6712 14.6213L16.7387 5L11.5925 6.20815L14.5251 15.8294C14.7752 16.6531 14.6501 17.5153 14.1624 18.2512C13.6747 18.9926 12.8931 19.5198 11.9551 19.7394L1 22.315L2.37564 26.8346Z" fill="white"/>
</svg>
